<svg data-v-fde0c5aa="" xmlns="http://www.w3.org/2000/svg" viewBox="0 0 300 300" class="iconAbove"><!----><defs data-v-fde0c5aa=""><linearGradient data-v-fde0c5aa="" gradientTransform="rotate(25)" id="157b78ba-dad3-4f8e-92cc-85a6923f99ec" x1="0%" y1="0%" x2="100%" y2="0%"><stop data-v-fde0c5aa="" offset="0%" stop-color="#49247E" stop-opacity="1"></stop><stop data-v-fde0c5aa="" offset="100%" stop-color="#AA49C7" stop-opacity="1"></stop></linearGradient></defs><rect data-v-fde0c5aa="" fill="url(#157b78ba-dad3-4f8e-92cc-85a6923f99ec)" x="0" y="0" width="300px" height="300px" class="logo-background-square"></rect><defs data-v-fde0c5aa=""><!----></defs><g data-v-fde0c5aa="" id="b1f2c64e-975a-4b38-b070-17506f35ae54" fill="#ffffff" transform="matrix(3.380135285871198,0,0,3.380135285871198,19.96619864474881,175.0049402586378)"><path d="M0.01 6.69C0.01 8.53 0.78 9.42 2.32 9.42C3.81 9.42 4.63 8.58 4.63 7.01C4.63 5.66 3.70 4.94 2.77 4.23L2.79 4.23C2.10 3.70 1.41 3.15 1.41 2.44C1.41 1.71 1.74 1.39 2.32 1.39C2.94 1.39 3.23 1.81 3.23 2.73L3.23 2.93C3.23 3.21 3.46 3.43 3.74 3.43L4.13 3.43C4.41 3.43 4.63 3.21 4.63 2.93L4.63 2.73C4.63 0.95 3.84-0.01 2.32-0.01C0.84-0.01 0.01 0.90 0.01 2.48C0.01 3.86 0.98 4.62 1.90 5.35L1.90 5.33C2.59 5.87 3.23 6.38 3.23 7.04C3.23 7.78 2.91 8.04 2.32 8.04C2.13 8.04 1.89 8.01 1.74 7.85C1.54 7.69 1.41 7.36 1.41 6.69L1.41 6.51C1.41 6.23 1.18 6.01 0.91 6.01L0.52 6.01C0.24 6.01 0.01 6.23 0.01 6.51ZM8.83 9.04C8.89 9.25 9.11 9.44 9.32 9.44L9.73 9.44C10.07 9.44 10.29 9.14 10.22 8.82L8.29 0.39C8.25 0.18 8.01 0 7.80 0L7.49 0C7.28 0 7.06 0.18 7 0.39L5.73 5.87L5.05 8.83C4.98 9.16 5.21 9.44 5.54 9.44L5.95 9.44C6.16 9.44 6.38 9.25 6.44 9.04L6.93 6.86L8.36 6.86ZM7.64 3.23C7.91 4.42 7.88 4.80 8.04 5.47L7.25 5.47ZM12.17 3.53L12.17 0.50C12.17 0.22 11.94 0 11.66 0L11.27 0C10.99 0 10.77 0.22 10.77 0.50L10.77 8.93C10.77 9.21 10.99 9.44 11.27 9.44L11.66 9.44C11.94 9.44 12.17 9.21 12.17 8.93L12.17 6.16L12.33 5.91L14.21 9.18C14.28 9.31 14.50 9.44 14.64 9.44L15.09 9.44C15.51 9.44 15.74 9.04 15.54 8.68L13.19 4.54L15.53 0.77C15.75 0.41 15.53 0 15.09 0L14.62 0C14.48 0 14.27 0.13 14.20 0.24ZM17.86 0.50C17.86 0.22 17.63 0 17.36 0L16.97 0C16.69 0 16.46 0.22 16.46 0.50L16.46 8.93C16.46 9.21 16.69 9.44 16.97 9.44L17.36 9.44C17.63 9.44 17.86 9.21 17.86 8.93ZM22.95 9.44C23.23 9.44 23.45 9.21 23.45 8.93L23.45 0.50C23.45 0.22 23.23 0 22.95 0L22.55 0C22.27 0 22.05 0.22 22.05 0.50L22.05 5.12L20.10 0.31C20.05 0.15 19.82 0 19.64 0L19.31 0C19.04 0 18.80 0.22 18.80 0.50L18.80 8.93C18.80 9.21 19.04 9.44 19.31 9.44L19.71 9.44C19.98 9.44 20.22 9.21 20.22 8.93L20.22 4.31L22.16 9.13C22.22 9.28 22.46 9.44 22.62 9.44ZM28.36 9.04C28.42 9.25 28.64 9.44 28.85 9.44L29.26 9.44C29.60 9.44 29.82 9.14 29.75 8.82L27.82 0.39C27.78 0.18 27.54 0 27.33 0L27.02 0C26.81 0 26.59 0.18 26.53 0.39L25.26 5.87L24.58 8.83C24.51 9.16 24.74 9.44 25.07 9.44L25.48 9.44C25.69 9.44 25.91 9.25 25.97 9.04L26.46 6.86L27.89 6.86ZM27.17 3.23C27.44 4.42 27.41 4.80 27.57 5.47L26.78 5.47ZM32.14 4.03L32.14 0.50C32.14 0.22 31.92 0 31.64 0L31.25 0C30.97 0 30.74 0.22 30.74 0.50L30.74 8.93C30.74 9.21 30.97 9.44 31.25 9.44L31.64 9.44C31.92 9.44 32.14 9.21 32.14 8.93L32.14 5.42L33.70 5.42L33.70 8.93C33.70 9.21 33.92 9.44 34.20 9.44L34.59 9.44C34.87 9.44 35.10 9.21 35.10 8.93L35.10 0.50C35.10 0.22 34.87 0 34.59 0L34.20 0C33.92 0 33.70 0.22 33.70 0.50L33.70 4.03ZM39.20 6.69C39.20 8.53 39.97 9.42 41.51 9.42C42.99 9.42 43.82 8.58 43.82 7.01C43.82 5.66 42.88 4.94 41.96 4.23L41.97 4.23C41.29 3.70 40.60 3.15 40.60 2.44C40.60 1.71 40.92 1.39 41.51 1.39C42.13 1.39 42.42 1.81 42.42 2.73L42.42 2.93C42.42 3.21 42.64 3.43 42.92 3.43L43.32 3.43C43.60 3.43 43.82 3.21 43.82 2.93L43.82 2.73C43.82 0.95 43.02-0.01 41.51-0.01C40.03-0.01 39.20 0.90 39.20 2.48C39.20 3.86 40.17 4.62 41.09 5.35L41.09 5.33C41.78 5.87 42.42 6.38 42.42 7.04C42.42 7.78 42.10 8.04 41.51 8.04C41.31 8.04 41.08 8.01 40.92 7.85C40.73 7.69 40.60 7.36 40.60 6.69L40.60 6.51C40.60 6.23 40.36 6.01 40.10 6.01L39.70 6.01C39.42 6.01 39.20 6.23 39.20 6.51ZM44.30 0.88C44.30 1.16 44.52 1.39 44.80 1.39L45.93 1.39L45.93 8.92C45.93 9.20 46.16 9.42 46.44 9.42L46.82 9.42C47.10 9.42 47.32 9.20 47.32 8.92L47.32 1.39L48.47 1.39C48.75 1.39 48.97 1.16 48.97 0.88L48.97 0.49C48.97 0.21 48.75-0.01 48.47-0.01L44.80-0.01C44.52-0.01 44.30 0.21 44.30 0.49ZM54.47 6.58C54.47 5.85 54.28 5.28 53.87 4.84C53.91 4.80 53.94 4.77 53.98 4.73C54.42 4.30 54.57 3.60 54.57 2.73C54.57 0.85 53.97-0.01 52.25-0.01L50.48-0.01C50.20-0.01 49.98 0.21 49.98 0.49L49.98 8.92C49.98 9.20 50.20 9.42 50.48 9.42L50.88 9.42C51.14 9.42 51.37 9.20 51.37 8.92L51.37 5.49L52.00 5.49C52.68 5.49 53.07 5.88 53.07 6.58L53.07 8.92C53.07 9.20 53.30 9.42 53.58 9.42L53.97 9.42C54.25 9.42 54.47 9.20 54.47 8.92ZM51.37 1.39L52.25 1.39C52.98 1.39 53.19 1.78 53.19 2.73C53.19 3.68 52.78 4.07 52.00 4.07L51.37 4.07ZM56.03 0C55.75 0 55.52 0.22 55.52 0.50L55.52 8.93C55.52 9.21 55.75 9.44 56.03 9.44L59.05 9.44C59.33 9.44 59.56 9.21 59.56 8.93L59.56 8.55C59.56 8.27 59.33 8.05 59.05 8.05L56.91 8.05L56.91 5.40L58.67 5.40C58.95 5.40 59.18 5.18 59.18 4.90L59.18 4.52C59.18 4.24 58.95 4.02 58.67 4.02L56.91 4.02L56.91 1.39L59.05 1.39C59.33 1.39 59.56 1.16 59.56 0.88L59.56 0.50C59.56 0.22 59.33 0 59.05 0ZM63.73 9.04C63.78 9.25 64.01 9.44 64.22 9.44L64.62 9.44C64.96 9.44 65.18 9.14 65.11 8.82L63.18 0.39C63.14 0.18 62.90 0 62.69 0L62.38 0C62.17 0 61.95 0.18 61.89 0.39L60.62 5.87L59.95 8.83C59.88 9.16 60.10 9.44 60.44 9.44L60.84 9.44C61.05 9.44 61.28 9.25 61.33 9.04L61.82 6.86L63.25 6.86ZM62.54 3.23C62.80 4.42 62.78 4.80 62.93 5.47L62.15 5.47ZM68.74 9.44C68.95 9.44 69.17 9.25 69.23 9.03L69.69 5.92L69.69 8.93C69.69 9.21 69.92 9.44 70.20 9.44L70.59 9.44C70.87 9.44 71.09 9.21 71.09 8.93L71.09 0.50C71.09 0.22 70.87 0 70.59 0L70.17 0C69.96 0 69.72 0.18 69.68 0.39L68.59 6.03L67.48 0.39C67.44 0.18 67.21 0 67.00 0L66.58 0C66.30 0 66.08 0.22 66.08 0.50L66.08 8.93C66.08 9.21 66.30 9.44 66.58 9.44L66.98 9.44C67.24 9.44 67.48 9.21 67.48 8.93L67.48 5.89L67.96 9.04C68.00 9.25 68.22 9.44 68.43 9.44ZM72.31 6.69C72.31 8.53 73.08 9.42 74.62 9.42C76.10 9.42 76.93 8.58 76.93 7.01C76.93 5.66 75.99 4.94 75.07 4.23L75.08 4.23C74.40 3.70 73.71 3.15 73.71 2.44C73.71 1.71 74.03 1.39 74.62 1.39C75.24 1.39 75.53 1.81 75.53 2.73L75.53 2.93C75.53 3.21 75.75 3.43 76.03 3.43L76.43 3.43C76.71 3.43 76.93 3.21 76.93 2.93L76.93 2.73C76.93 0.95 76.13-0.01 74.62-0.01C73.14-0.01 72.31 0.90 72.31 2.48C72.31 3.86 73.28 4.62 74.20 5.35L74.20 5.33C74.89 5.87 75.53 6.38 75.53 7.04C75.53 7.78 75.21 8.04 74.62 8.04C74.42 8.04 74.19 8.01 74.03 7.85C73.84 7.69 73.71 7.36 73.71 6.69L73.71 6.51C73.71 6.23 73.47 6.01 73.21 6.01L72.81 6.01C72.53 6.01 72.31 6.23 72.31 6.51Z"></path></g><defs data-v-fde0c5aa=""><!----></defs><g data-v-fde0c5aa="" id="bdcf5e1e-333f-4047-b9c5-7c4fb056d3d5" stroke="none" fill="#ffffff" transform="matrix(0.8941279938052883,0,0,0.8941279938052883,105.95212538616684,80.86206541992922)"><path d="M81.484 29.234h.336l2.464 1.435H74.053l2.65-1.435h.671m-59.329 0v-5.547l1.553-2.342v-2.653l.908-.358v3.011l1.555 2.342v5.547m1.339 27.56h-7.077m59.33 0h-.049l-1.219 1.555h9.657l-1.219-1.555h-.119M50.961 37.528h.333l2.463 1.434m-10.23 0l2.677-1.434h.645"></path><path d="M17.71 17.88l-.454-.406c.454.143.86.215 1.243.215.741 0 1.315-.215 1.769-.669.238-.382.334-.836.334-1.338 0-.741-.19-1.411-.55-2.009l.885.67c.574.454.885 1.051.885 1.793 0 .741-.311 1.338-.885 1.745l-1.218.454c-.36.096-.742.096-1.052 0-.335-.049-.646-.215-.957-.455zM23.4 38.317v18.477h.095l1.219 1.555h-9.657l1.099-1.555h.167V38.317zM14.842 31.672h9.967v3.561h-9.967zM24.954 36.787l-1.698 1.435h-7.195l-1.004-1.435zM24.954 30.669H14.722l2.677-1.435h.646v-5.546l1.553-2.343v-2.653l.908-.358v3.011l1.555 2.343v5.546h.43zM26.363 61.552h-13.53l2.439-1.673h9.107zM46.515 26.198l-.312-.431c.43.144.837.215 1.194.215.767 0 1.364-.215 1.793-.668a2.38 2.38 0 00.336-1.219c0-.287-.072-.67-.214-1.124a5.2 5.2 0 00-.455-1.004l.885.693c.575.454.885 1.051.885 1.864 0 .694-.31 1.243-.885 1.674l-1.22.454c-.598.144-1.267 0-2.007-.454zM77.04 17.903l-.337-.43c.456.143.839.215 1.221.215.764 0 1.339-.215 1.768-.669.24-.382.36-.788.36-1.219 0-.311-.073-.668-.216-1.124-.168-.454-.31-.764-.454-1.004l.885.67c.573.454.885 1.075.885 1.889 0 .693-.312 1.243-.885 1.672l-1.219.431c-.598.167-1.269 0-2.008-.431zM82.705 38.317v18.477h.119l1.219 1.555h-9.657l1.218-1.555h.049V38.317zM74.148 31.672h9.991v3.561h-9.991zM84.284 36.787l-1.579 1.435h-7.22l-1.099-1.435zM84.284 30.669H74.053l2.65-1.435h.671v-5.546l1.554-2.343v-2.653l.908-.358v3.011l1.648 2.343v5.546h.336zM83.709 59.879l1.984 1.673H72.141l2.555-1.673z"></path><path d="M85.262 66.5h.432v18.621H56.052v-5.092a6.409 6.409 0 00-1.888-4.565 6.477 6.477 0 00-4.565-1.889c-3.563 0-6.43 2.893-6.43 6.454v5.092H12.833V66.5h.431v-4.183h12.693V66.5h2.485s-2.39-23.663 15.084-27.538l2.677-1.434h.645v-5.545l1.554-2.32v-2.676l.91-.335v3.011l1.649 2.32v5.545h.333l2.463 1.434C71.421 42.811 70.18 66.5 70.18 66.5h2.532v-4.183h12.55V66.5z"></path></g><!----></svg>